# AST/ASF file generated using VICON BodyLanguage
# -----------------------------------------------
:version 1.10
:name VICON
:units
  mass 1.0
  length 0.45
  angle deg
:documentation
   .ast/.asf automatically generated from VICON data using
   VICON BodyBuilder and BodyLanguage model FoxedUp or BRILLIANT.MOD
:root
   order TX TY TZ RX RY RZ
   axis XYZ
   position 0 0 0  
   orientation 0 0 0 
:bonedata
  begin
     id 1 
     name lhipjoint
     direction 0.645893 -0.654526 0.392961 
     length 2.38111 
     axis 0 0 0  XYZ
  end
  begin
     id 2 
     name lfemur
     direction 0.34202 -0.939693 0  
     length 6.6822  
     axis 0 0 20  XYZ
    dof rx ry rz
    limits (-160.0 20.0)
           (-70.0 70.0)
           (-60.0 70.0)
  end
  begin
     id 3 
     name ltibia
     direction 0.34202 -0.939693 0   
     length 6.93904   
     axis 0 0 20   XYZ
    dof rx
    limits (-10.0 170.0)
  end
  begin
     id 4 
     name lfoot
     direction 0.0694967 -0.190941 0.979138   
     length 2.13616   
     axis -90 7.62852e-016 20   XYZ
    dof rx rz
    limits (-45.0 90.0)
           (-70.0 20.0)
  end
  begin
     id 5 
     name ltoes
     direction 1.535e-011 -4.2202e-011 1   
     length 1.07536   
     axis -90 7.62852e-016 20   XYZ
    dof rx
    limits (-90.0 20.0)
  end
  begin
     id 6 
     name rhipjoint
     direction -0.700219 -0.612087 0.367481   
     length 2.54621  
     axis 0 0 0  XYZ 
  end
  begin
     id 7 
     name rfemur
     direction -0.34202 -0.939693 0   
     length 6.55353   
     axis 0 0 -20   XYZ
    dof rx ry rz
    limits (-160.0 20.0)
           (-70.0 70.0)
           (-70.0 60.0)
  end
  begin
     id 8 
     name rtibia
     direction -0.34202 -0.939693 0   
     length 6.8736   
     axis 0 0 -20   XYZ
    dof rx
    limits (-10.0 170.0)
 end
 begin
     id 9 
     name rfoot
     direction -0.0679995 -0.186827 0.980037   
     length 2.1218  
     axis -90 -7.62852e-016 -20   XYZ
    dof rx rz
    limits (-45.0 90.0)
           (-20.0 70.0)
  end
  begin
     id 10 
     name rtoes
     direction -1.53589e-011 -4.21772e-011 1   
     length 1.06864   
     axis -90 -7.62852e-016 -20   XYZ
    dof rx
    limits (-90.0 20.0)
  end
  begin
     id 11 
     name lowerback
     direction -0.0416607 0.996347 -0.0745409   
     length 2.12205   
     axis 0 0 0   XYZ
    dof rx ry rz
    limits (-20.0 45.0)
           (-30.0 30.0)
           (-30.0 30.0)
  end
  begin
     id 12 
     name upperback
     direction -0.000153993 0.999276 -0.0380568   
     length 2.12759   
     axis 0 0 0   XYZ
    dof rx ry rz
    limits (-20.0 45.0)
           (-30.0 30.0)
           (-30.0 30.0)
  end
  begin
     id 13 
     name thorax
     direction 0.0187671 0.999821 -0.00241421   
     length 2.13704   
     axis 0 0 0   XYZ
    dof rx ry rz
    limits (-20.0 45.0)
           (-30.0 30.0)
           (-30.0 30.0)
  end
  begin
     id 14 
     name lowerneck
     direction 0.0268157 0.964865 0.261374   
     length 1.65253   
     axis 0 0 0   XYZ
    dof rx ry rz
    limits (-20.0 45.0)
           (-30.0 30.0)
           (-30.0 30.0)
  end
  begin
     id 15 
     name upperneck
     direction 0.00263774 0.939908 -0.341418   
     length 1.72375   
     axis 0 0 0   XYZ
    dof rx ry rz
    limits (-20.0 45.0)
           (-30.0 30.0)
           (-30.0 30.0)
  end
  begin
     id 16
     name head
     direction -0.00526001 0.989001 -0.147818  
     length 1.74878  
     axis 0 0 0   XYZ
    dof rx ry rz
    limits (-20.0 45.0)
           (-30.0 30.0)
           (-30.0 30.0)
  end
  begin
     id 17 
     name lclavicle
     direction 0.881214 0.461162 -0.103884  
     length 3.25108  
     axis 0 0 0   XYZ
    dof ry rz
    limits (-20.0 10.0)
           (0.0 20.0)
  end
  begin
     id 18 
     name lhumerus
     direction 1 -4.4899e-011 3.38092e-027   
     length 4.87408   
     axis 180 -30 -90   XYZ
    dof rx ry rz
    limits (-60.0 90.0)
           (-90.0 90.0)
           (-90.0 90.0)
  end
  begin
     id 19
     name lradius
     direction 1 -4.48931e-011 9.96288e-027   
     length 2.76729   
     axis 180 -30 -90   XYZ
    dof rx
    limits (-10.0 170.0)
  end
  begin
     id 20
     name lwrist
     direction 1 -4.4896e-011 1.50617e-026   
     length 1.38364   
     axis -9.31234e-015 90 90   XYZ
    dof ry
    limits (-180.0 0.0)
 end
  begin
     id 21 
     name lhand
     direction 1 -4.49038e-011 3.01286e-026   
     length 0.98922   
     axis -1.92217e-014 90 90   XYZ
    dof rx rz
    limits (-90.0 90.0)
           (-45.0 45.0)
  end
  begin
     id 22 
     name lfingers
     direction 1 -4.49051e-011 6.02588e-026   
     length 0.797535   
     axis -3.84436e-014 90 90   XYZ
    dof rx
    limits (0.0 90.0)
  end
  begin
     id 23
     name lthumb
     direction 0.707107 -6.34901e-011 0.707107   
     length 1.14511   
     axis -90 45 2.19363e-014   XYZ
    dof rx rz
    limits (-45.0 45.0)
           (-45.0 45.0)
  end
  begin
     id 24 
     name rclavicle
     direction -0.893894 0.441652 -0.0767889   
     length 3.29361  
     axis 0 0 0   XYZ 
    dof ry rz
    limits (-10.0 20.0)
           (-20.0 0.0)
  end
  begin
     id 25 
     name rhumerus
     direction -1 -4.48945e-011 8.0491e-028  
     length 4.71404   
     axis 180 30 90   XYZ
    dof rx ry rz
    limits (-90.0 60.0)
           (-90.0 90.0)
           (-90.0 90.0)
  end
  begin
     id 26 
     name rradius
     direction -1 -4.48986e-011 9.27795e-027   
     length 2.83468   
     axis 180 30 90   XYZ
    dof rx
    limits (-10.0 170.0)
  end
  begin
     id 27 
     name rwrist
     direction -1 -4.49029e-011 1.5064e-026   
     length 1.41734   
     axis -9.31234e-015 -90 -90   XYZ
    dof ry
    limits (-180.0 0.0)
  end
  begin
     id 28
     name rhand
     direction -1 -4.48857e-011 3.01165e-026   
     length 0.868195   
     axis -1.92217e-014 -90 -90   XYZ
    dof rx rz
    limits (-90.0 90.0)
           (-45.0 45.0)
  end
  begin
     id 29
     name rfingers
     direction -1 -4.49048e-011 6.02585e-026   
     length 0.699961   
     axis -3.84436e-014 -90 -90   XYZ
    dof rx
    limits (0.0 90.0)
  end
  begin
     id 30
     name rthumb
     direction -0.707107 -6.34854e-011 0.707107   
     length 1.00501   
     axis -90 -45 -2.19363e-014   XYZ
    dof rx rz
    limits (-45.0 45.0)
           (-45.0 45.0)
  end
:hierarchy
  begin
    root lhipjoint rhipjoint lowerback
    lhipjoint lfemur
    lfemur ltibia
    ltibia lfoot
    lfoot ltoes
    rhipjoint rfemur
    rfemur rtibia
    rtibia rfoot
    rfoot rtoes
    lowerback upperback
    upperback thorax
    thorax lowerneck lclavicle rclavicle
    lowerneck upperneck
    upperneck head
    lclavicle lhumerus
    lhumerus lradius
    lradius lwrist
    lwrist lhand lthumb
    lhand lfingers
    rclavicle rhumerus
    rhumerus rradius
    rradius rwrist
    rwrist rhand rthumb
    rhand rfingers
  end

#!OML:ASF H:\ManfredObstacles\Project 1\Capture day 2\Session 1\male.ASF
:FULLY-SPECIFIED
:DEGREES
1
root 1.17227 16.2317 32.8358 -170.192 0.908667 176.94
lowerback -2.11794 5.65109 -5.59874
upperback 1.11508 7.88004 -2.52086
thorax 1.94459 3.92073 0.777609
lowerneck -35.4969 -3.31713 -1.73314
upperneck 41.7762 -9.01916 2.8872
head 25.7841 -3.66869 -1.21722
rclavicle 5.65542e-014 -3.97569e-016
rhumerus -30.204 25.3069 -98.1526
rradius 101.891
rwrist 6.85311
rhand -12.5891 -1.73193
rfingers 7.12502
rthumb 13.4892 -31.2751
lclavicle 5.65542e-014 -3.97569e-016
lhumerus -78.5864 -23.14 89.1872
lradius 96.204
lwrist -15.1192
lhand -13.9865 5.65987
lfingers 7.12502
lthumb 12.1421 35.2875
rfemur 1.43665 2.02743 22.832
rtibia 32.0165
rfoot 13.754 -12.9294
rtoes -23.3448
lfemur -40.984 -12.2061 -16.5291
ltibia 34.4619
lfoot 15.0067 11.0147
ltoes -18.5732
2
root 1.15912 16.2448 32.5334 -170.094 0.657206 176.783
lowerback -2.5448 5.59095 -5.76195
upperback 1.07844 7.83717 -2.51885
thorax 2.12623 3.89211 0.911504
lowerneck -35.5841 -3.41321 -2.08854
upperneck 41.9002 -9.09543 3.07182
head 26.0285 -3.73345 -1.08078
rclavicle 3.90115e-014 -2.5842e-014
rhumerus -30.4749 25.7091 -98.1267
rradius 102.218
rwrist 7.18228
rhand -12.3744 -1.87813
rfingers 7.12502
rthumb 13.6962 -31.4074
lclavicle 3.90115e-014 -2.5842e-014
lhumerus -79.0316 -22.9798 89.1068
lradius 96.6796
lwrist -14.9768
lhand -14.0499 5.74428
lfingers 7.12502
lthumb 12.081 35.3755
rfemur 2.0383 1.53109 22.6106
rtibia 32.3407
rfoot 15.0661 -12.9215
rtoes -22.6012
lfemur -40.9026 -12.3773 -16.8528
ltibia 33.4472
lfoot 16.0178 10.8073
ltoes -19.906
3
root 1.14364 16.249 32.2318 -170.024 0.453458 176.668
lowerback -2.90211 5.60203 -5.83575
upperback 0.882308 7.87482 -2.57756
thorax 2.11964 3.91339 0.919582
lowerneck -35.1268 -3.37165 -2.01221
upperneck 41.9965 -9.19279 3.10107
head 25.9456 -3.78107 -1.10598
rclavicle 6.3959e-014 -1.80894e-014
rhumerus -31.2103 25.7384 -98.4041
rradius 102.501
rwrist 7.35237
rhand -12.2361 -1.66328
rfingers 7.12502
rthumb 13.8295 -31.1835
lclavicle 6.3959e-014 -1.80894e-014
lhumerus -79.7551 -23.0959 89.0368
lradius 97.0521
lwrist -15.434
lhand -14.2555 5.13044
lfingers 7.12502
lthumb 11.8827 34.7733
rfemur 2.27577 1.04529 22.3739
rtibia 33.3557
rfoot 16.2556 -13.2258
rtoes -21.3929
lfemur -40.8801 -12.2473 -17.3495
ltibia 33.194
lfoot 16.5412 10.1721
ltoes -16.9081
4
root 1.1221 16.2221 31.9433 -170.149 0.484847 176.642
lowerback -3.00906 5.68945 -5.77805
upperback 0.789884 7.99304 -2.60457
thorax 2.08874 3.97542 0.870642
lowerneck -34.8223 -3.4297 -2.18793
upperneck 42.2681 -9.39489 3.16517
head 26.1601 -3.90295 -1.11636
rclavicle -3.17062e-014 3.18055e-015
rhumerus -32.0399 25.4353 -98.617
rradius 102.602
rwrist 7.59778
rhand -12.0917 -1.49267
rfingers 7.12502
rthumb 13.9686 -31.0034
lclavicle -3.17062e-014 3.18055e-015
lhumerus -80.1448 -23.3275 89.2248
lradius 97.56
lwrist -15.2031
lhand -14.2338 5.46406
lfingers 7.12502
lthumb 11.9037 35.1057
rfemur 2.49207 0.862204 22.1707
rtibia 34.446
rfoot 17.9294 -12.9935
rtoes -19.6448
lfemur -40.1332 -11.7032 -18.0605
ltibia 33.0052
lfoot 15.7763 8.5161
ltoes -21.4839
5
root 1.10171 16.1983 31.6519 -170.25 0.440845 176.579
lowerback -3.14515 5.72296 -5.73852
upperback 0.69739 8.04392 -2.63924
thorax 2.07662 4.00365 0.825389
lowerneck -34.5921 -3.42355 -2.27383
upperneck 42.4627 -9.48927 3.21185
head 26.3053 -3.96851 -1.11422
rclavicle -3.85642e-014 -5.22804e-014
rhumerus -32.8194 25.2721 -98.8515
rradius 102.717
rwrist 7.81813
rhand -11.9494 -1.36065
rfingers 7.12502
rthumb 14.1057 -30.8619
lclavicle -3.85642e-014 -5.22804e-014
lhumerus -80.5494 -23.4491 89.3093
lradius 98.0173
lwrist -15.1583
lhand -14.2789 5.54941
lfingers 7.12502
lthumb 11.8602 35.1935
rfemur 2.58897 0.566125 21.9362
rtibia 35.8125
rfoot 19.3186 -12.9706
rtoes -18.2112
lfemur -39.6842 -11.195 -18.7711
ltibia 33.157
lfoot 15.5316 7.43509
ltoes -22.7767
6
root 1.07927 16.1616 31.3645 -170.426 0.430755 176.536
lowerback -3.1642 5.75109 -5.62805
upperback 0.614593 8.07614 -2.67847
thorax 2.02034 4.02472 0.724551
lowerneck -34.3951 -3.37948 -2.31639
upperneck 42.6664 -9.53627 3.23039
head 26.465 -4.01372 -1.12313
rclavicle 1.45113e-014 -6.75868e-015
rhumerus -33.6962 25.0113 -99.13
rradius 102.75
rwrist 8.02676
rhand -11.8176 -1.23933
rfingers 7.12502
rthumb 14.2327 -30.7317
lclavicle 1.45113e-014 -6.75868e-015
lhumerus -80.8673 -23.5702 89.4128
lradius 98.4472
lwrist -15.1195
lhand -14.3177 5.668
lfingers 7.12502
lthumb 11.8227 35.3143
rfemur 2.54494 0.292634 21.6966
rtibia 37.483
rfoot 20.7059 -12.925
rtoes -16.6291
lfemur -39.1048 -10.5053 -19.5812
ltibia 33.6389
lfoot 15.2759 6.46333
ltoes -23.1962
7
root 1.05521 16.113 31.0811 -170.671 0.438581 176.517
lowerback -3.06767 5.77228 -5.43838
upperback 0.541381 8.08831 -2.7295
thorax 1.92296 4.03793 0.556445
lowerneck -34.2438 -3.31794 -2.33643
upperneck 42.8636 -9.55754 3.23978
head 26.6345 -4.04534 -1.13439
rclavicle -2.05245e-014 2.8625e-014
rhumerus -34.6523 24.636 -99.444
rradius 102.697
rwrist 8.25034
rhand -11.6985 -1.15879
rfingers 7.12502
rthumb 14.3475 -30.643
lclavicle -2.05245e-014 2.8625e-014
lhumerus -81.0804 -23.7093 89.5175
lradius 98.824
lwrist -15.0949
lhand -14.3713 5.79386
lfingers 7.12502
lthumb 11.771 35.4431
rfemur 2.42767 0.0228246 21.4595
rtibia 39.3152
rfoot 22.0734 -12.933
rtoes -15.0098
lfemur -38.3791 -9.67337 -20.4436
ltibia 34.3429
lfoot 15.0173 5.75114
ltoes -22.3956
